<svg xmlns="http://www.w3.org/2000/svg" width="512" height="512" viewBox="0 0 512 512">
  <!-- Dark background with rounded corners -->
  <rect width="512" height="512" rx="112" ry="112" fill="#09090b"/>
  <!-- Clipboard icon centered, scaled from 256x256 to ~300x300, offset (106, 106) -->
  <g transform="translate(106, 106) scale(1.172)">
    <path fill="#38bdf8" d="M200 32h-36.26a47.92 47.92 0 0 0-71.48 0H56a16 16 0 0 0-16 16v168a16 16 0 0 0 16 16h144a16 16 0 0 0 16-16V48a16 16 0 0 0-16-16m-72 0a32 32 0 0 1 32 32H96a32 32 0 0 1 32-32m32 128H96a8 8 0 0 1 0-16h64a8 8 0 0 1 0 16m0-32H96a8 8 0 0 1 0-16h64a8 8 0 0 1 0 16"/>
  </g>
</svg>
